# xmcd
#
# Track frame offsets:
# 150
# 23122
# 43832
# 61757
# 82280
# 107237
#
# Disc length: 1603 seconds
#
# Revision: 0
# Processed by: cddbd v1.5.1PL0 Copyright (c) Steve Scherf et al.
# Submitted via: Audion 3.0.2 (http://www.panic.com/audion/)
#
DISCID=4c064106
DTITLE=The Mad Hatters - Crazy About You
DYEAR=1900
DGENRE=
TTITLE0=Days By The Sea
TTITLE1=Down And Out
TTITLE2=A Lullaby
TTITLE3=Rub Run Away
TTITLE4=Indian Song
TTITLE5=Under The Sun
EXTD=
EXTT0=
EXTT1=
EXTT2=
EXTT3=
EXTT4=
EXTT5=
PLAYORDER=
